<svg id="Capa_1" enable-background="new 0 0 512 512" height="512" viewBox="0 0 512 512" width="512" xmlns="http://www.w3.org/2000/svg" xmlns:xlink="http://www.w3.org/1999/xlink"><linearGradient id="SVGID_1_" gradientTransform="matrix(1 0 0 -1 0 514)" gradientUnits="userSpaceOnUse" x1="15.629" x2="496.371" y1="258" y2="258"><stop offset="0" stop-color="#d2deff" stop-opacity="0"/><stop offset="1" stop-color="#b7c5ff"/></linearGradient><g><g><path d="m20.722 179.563c26.255 85.007 107.775 89.005 182.131 93.553 244.867 14.978-63.002 218.186 146.697 238.304 77.136 7.4 157.788-56.956 145.59-140.291-11.107-75.879-121.152-121.073-121.207-191.979-.043-55.945 103.86-96.409 36.272-156.553-60.249-53.612-442.871-15.888-389.483 156.966z" fill="url(#SVGID_1_)"/></g><g><g><g><g><g enable-background="new" opacity=".1"><path d="m386.53 79.415v377.92c0 16.57-13.43 30-30 30h-201.06c-16.57 0-30-13.43-30-30v-377.92c0-16.57 13.43-30 30-30h201.06c16.57 0 30 13.43 30 30z" fill="#2626bc"/></g><g><path d="m386.53 55.416v377.92c0 16.57-13.43 30-30 30h-201.06c-16.57 0-30-13.43-30-30v-377.92c0-16.57 13.43-30 30-30h201.06c16.57 0 30 13.429 30 30z" fill="#fff"/></g><g><path d="m125.47 188.333v245.002c0 16.57 13.43 30 30 30h201.06c16.57 0 30-13.43 30-30v-245.002z" fill="#fff"/></g><g><path d="m125.47 109.667h261.06v98.667h-261.06z" fill="#6583fe"/></g><g><path d="m311.593 48.354 7.157-22.939h-125.5l7.157 22.939c1.303 4.177 5.171 7.021 9.546 7.021h92.093c4.376 0 8.244-2.844 9.547-7.021z" fill="#6583fe"/></g><g><g><path d="m309.26 428.787h-106.52c-2.762 0-5-2.239-5-5s2.238-5 5-5h106.52c2.762 0 5 2.239 5 5s-2.239 5-5 5z" fill="#2626bc"/></g></g><g><g><path d="m357.595 96.12h-76.52c-2.762 0-5-2.239-5-5s2.238-5 5-5h76.52c2.762 0 5 2.239 5 5 0 2.762-2.238 5-5 5z" fill="#2626bc"/></g></g><g><g><path d="m179.833 53.746h-19c-2.761 0-5-2.239-5-5v-4.98c0-2.761 2.239-5 5-5h19c2.762 0 5 2.239 5 5v4.98c0 2.761-2.238 5-5 5z" fill="#2626bc"/></g><g><g><g><path d="m335.917 53.005c-2.761 0-5-2.239-5-5v-3.5c0-2.761 2.239-5 5-5s5 2.239 5 5v3.5c0 2.762-2.239 5-5 5z" fill="#2626bc"/></g></g><g><g><path d="m351.167 53.005c-2.761 0-5-2.239-5-5v-3.5c0-2.761 2.239-5 5-5s5 2.239 5 5v3.5c0 2.762-2.239 5-5 5z" fill="#2626bc"/></g></g></g></g><g><g><g><path d="m256 406.944c-1.279 0-2.56-.488-3.535-1.464l-5.834-5.833c-1.953-1.953-1.953-5.118-.001-7.071 1.953-1.953 5.118-1.953 7.071 0l2.299 2.298 2.299-2.298c1.951-1.952 5.118-1.953 7.071 0 1.952 1.953 1.952 5.118-.001 7.071l-5.834 5.833c-.975.976-2.256 1.464-3.535 1.464z" fill="#2626bc"/></g></g></g></g></g><g><g><g><path d="m196.865 181.21c-1.447 0-2.857-.629-3.826-1.78l-19.766-23.477v20.257c0 2.761-2.239 5-5 5s-5-2.239-5-5v-33.96c0-2.101 1.313-3.977 3.286-4.697 1.974-.718 4.186-.13 5.538 1.477l19.766 23.477v-20.255c0-2.761 2.239-5 5-5s5 2.239 5 5v33.957c0 2.101-1.313 3.977-3.286 4.697-.559.204-1.138.303-1.712.304z" fill="#2626bc"/></g></g><g><g><path d="m236.773 181.209h-19.123c-2.761 0-5-2.239-5-5v-33.959c0-2.761 2.239-5 5-5h19.123c2.761 0 5 2.239 5 5s-2.239 5-5 5h-14.123v23.959h14.123c2.761 0 5 2.239 5 5s-2.239 5-5 5z" fill="#2626bc"/></g></g><g><g><path d="m335.236 181.209h-10.634c-2.762 0-5-2.239-5-5s2.238-5 5-5h10.634c1.924 0 3.489-1.565 3.489-3.49 0-1.924-1.565-3.49-3.489-3.49h-2.143c-7.439 0-13.49-6.051-13.49-13.489s6.052-13.49 13.49-13.49h10.633c2.762 0 5 2.239 5 5s-2.238 5-5 5h-10.633c-1.925 0-3.49 1.565-3.49 3.49 0 1.924 1.565 3.489 3.49 3.489h2.143c7.439 0 13.489 6.052 13.489 13.49.001 7.439-6.05 13.49-13.489 13.49z" fill="#2626bc"/></g></g><g><g><g><path d="m269.871 181.209s0 0-.001 0c-1.922-.001-3.674-1.103-4.506-2.836l-16.309-33.959c-1.195-2.489-.147-5.476 2.343-6.672 2.488-1.194 5.475-.147 6.671 2.343l11.804 24.578 6.19-12.881c1.197-2.488 4.183-3.539 6.673-2.34 2.489 1.196 3.537 4.184 2.341 6.672l-10.699 22.261c-.833 1.732-2.585 2.834-4.507 2.834z" fill="#2626bc"/></g><g><path d="m291.265 181.206c-1.922 0-3.675-1.102-4.507-2.835l-16.314-33.954c-1.196-2.489-.147-5.477 2.342-6.672 2.492-1.196 5.477-.146 6.672 2.341l11.807 24.574 11.807-24.574c1.196-2.488 4.182-3.538 6.672-2.341 2.489 1.196 3.538 4.183 2.342 6.672l-16.314 33.954c-.832 1.733-2.585 2.835-4.507 2.835z" fill="#2626bc"/></g></g><g><path d="m228.073 164.229h-10.423c-2.761 0-5-2.239-5-5s2.239-5 5-5h10.423c2.761 0 5 2.239 5 5s-2.239 5-5 5z" fill="#2626bc"/></g></g></g><g><g><path d="m227.333 365.833h-66.5c-2.761 0-5-2.239-5-5v-128.5c0-2.761 2.239-5 5-5h66.5c2.762 0 5 2.239 5 5v128.5c0 2.762-2.238 5-5 5z" fill="#6583fe"/></g><g><path d="m362.59 232.33v44.37c0 2.76-2.23 5-5 5h-99.03c-2.76 0-5-2.24-5-5v-44.37c0-2.76 2.24-5 5-5h99.03c2.77 0 5 2.24 5 5z" fill="#6583fe"/></g><g><g><path d="m358.75 307.084h-100.187c-2.762 0-5-2.239-5-5s2.238-5 5-5h100.187c2.762 0 5 2.239 5 5s-2.238 5-5 5z" fill="#2626bc"/></g></g><g><g><path d="m358.75 327.084h-100.187c-2.762 0-5-2.239-5-5s2.238-5 5-5h100.187c2.762 0 5 2.239 5 5s-2.238 5-5 5z" fill="#2626bc"/></g></g><g><g><path d="m358.75 347.084h-100.187c-2.762 0-5-2.239-5-5s2.238-5 5-5h100.187c2.762 0 5 2.239 5 5s-2.238 5-5 5z" fill="#2626bc"/></g></g><g><g><path d="m358.75 367.084h-100.187c-2.762 0-5-2.239-5-5s2.238-5 5-5h100.187c2.762 0 5 2.239 5 5s-2.238 5-5 5z" fill="#2626bc"/></g></g></g><g><path d="m336.16 281.7h-77.6c-2.76 0-5-2.24-5-5v-30.02c6.47-1.98 13.35-3.05 20.47-3.05 27.11 0 50.6 15.47 62.13 38.07z" fill="#fff"/></g><g><path d="m158.834 131.667c-2.761 0-5-2.239-5-5v-.107c0-2.761 2.239-5 5-5s5 2.239 5 5v.107c0 2.761-2.239 5-5 5z" fill="#2626bc"/></g></g><g><g><path d="m425 168c-1.279 0-2.56-.488-3.535-1.464l-11-11c-1.953-1.953-1.953-5.119 0-7.071l11-11c1.951-1.952 5.119-1.952 7.07 0l11 11c1.953 1.953 1.953 5.119 0 7.071l-11 11c-.975.976-2.256 1.464-3.535 1.464zm-3.929-16 3.929 3.929 3.929-3.929-3.929-3.929z" fill="#6583fe"/></g><g><path d="m428 407.501c-1.279 0-2.56-.488-3.535-1.464l-11-11c-1.953-1.953-1.953-5.119 0-7.071l11-11c1.951-1.952 5.119-1.952 7.07 0l11 11c1.953 1.953 1.953 5.119 0 7.071l-11 11c-.975.976-2.256 1.464-3.535 1.464zm-3.929-16 3.929 3.929 3.929-3.929-3.929-3.929z" fill="#6583fe"/></g><g><path d="m53.976 297.7c-2.761 0-5-2.239-5-5 0-3.309-2.691-6-6-6-2.761 0-5-2.239-5-5s2.239-5 5-5c3.309 0 6-2.692 6-6 0-2.761 2.239-5 5-5s5 2.239 5 5c0 3.309 2.691 6 6 6 2.761 0 5 2.239 5 5s-2.239 5-5 5c-3.309 0-6 2.691-6 6 0 2.761-2.239 5-5 5z" fill="#6583fe"/></g><g><path d="m83.976 338.085c-2.761 0-5-2.239-5-5 0-3.309-2.691-6-6-6-2.761 0-5-2.239-5-5s2.239-5 5-5c3.309 0 6-2.691 6-6 0-2.761 2.239-5 5-5s5 2.239 5 5c0 3.309 2.691 6 6 6 2.761 0 5 2.239 5 5s-2.239 5-5 5c-3.309 0-6 2.691-6 6 0 2.761-2.239 5-5 5z" fill="#6583fe"/></g><g><path d="m441.024 245.343c-2.762 0-5-2.239-5-5 0-3.309-2.691-6-6-6-2.762 0-5-2.239-5-5s2.238-5 5-5c3.309 0 6-2.691 6-6 0-2.761 2.238-5 5-5s5 2.239 5 5c0 3.309 2.691 6 6 6 2.762 0 5 2.239 5 5s-2.238 5-5 5c-3.309 0-6 2.691-6 6 0 2.761-2.238 5-5 5z" fill="#6583fe"/></g></g></g><g><path d="m125.469 336.503c2.761 0 5-2.239 5-5v-276.088c0-13.785 11.215-25 25-25h201.063c13.785 0 25 11.215 25 25v276.088c0 2.761 2.238 5 5 5s5-2.239 5-5v-276.088c0-19.299-15.701-35-35-35h-201.063c-19.299 0-35 15.701-35 35v276.088c0 2.761 2.239 5 5 5z" fill="#2626bc"/></g><g><path d="m155.469 468.336h201.063c19.299 0 35-15.701 35-35v-68.173c0-2.761-2.238-5-5-5s-5 2.239-5 5v68.173c0 13.785-11.215 25-25 25h-201.063c-13.785 0-25-11.215-25-25v-68.173c0-2.761-2.239-5-5-5s-5 2.239-5 5v68.173c0 19.3 15.701 35 35 35z" fill="#2626bc"/></g><g><path d="m357.59 286.7h-99.03c-5.514 0-10-4.486-10-10v-44.37c0-5.514 4.486-10 10-10h99.03c5.514 0 10 4.486 10 10v44.37c0 5.514-4.486 10-10 10zm0-54.378-99.03.008.001 44.37h99.029z" fill="#2626bc"/></g></g></svg>