<svg id="Capa_1" enable-background="new 0 0 512 512" height="512" viewBox="0 0 512 512" width="512" xmlns="http://www.w3.org/2000/svg"><g><g><path d="m256 315.916c-141.387 0-243.753-149.49-222.328-186.917 44.12-77.07 127.158-128.999 222.328-128.999 97.204 0 181.752 54.173 225.103 133.974 19.704 36.274-83.716 181.942-225.103 181.942z" fill="#8d8ddb"/><path d="m512 256c0 26.051-3.891 51.191-11.129 74.871-5.031 16.469-11.672 32.231-19.75 47.109-8.25 15.2-147.391 48.829-225.121 48.829s-216.871-33.629-225.109-48.829c-3.289-6.031-6.332-12.21-9.121-18.531-14-31.629-21.77-66.629-21.77-103.449 0-46.219 12.25-89.57 33.68-127 44.121 77.07 127.16 129 222.32 129s178.211-51.93 222.32-129c21.43 37.43 33.68 80.781 33.68 127zm0 0" fill="#5c5ccc"/><path d="m481.262 377.699c-7.16 13.223-15.434 25.742-24.723 37.43-3.972 5.005-8.13 9.856-12.463 14.544-4.872 5.271-371.811 4.741-376.913-.827-4.059-4.431-7.964-9.005-11.702-13.717-9.289-11.688-17.563-24.207-24.723-37.43zm0 0" fill="#3829ad"/></g><g><g><g><g><path d="m67.163 428.838c12.014 13.119 25.376 24.981 39.869 35.369l91.696 11.207 8.759-.945v-340.143h-140.324z" fill="#eff5ff"/><path d="m347.812 134.326h-140.325v340.143l140.325-15.135z" fill="#dae7fc"/></g><path d="m100.471 459.334c31.762 24.331 69.38 41.401 110.385 48.696l19.62-23.116-22.99-25.581h-107.015z" fill="#536695"/><path d="m141.068 459.334v25.462c24.089 12.124 50.354 20.553 78.056 24.55l11.353-24.431-12.586-25.581z" fill="#414f73"/><path d="m257.509 459.334h-50.022v48.055c15.71 3.014 31.924 4.611 48.513 4.611 7.408 0 14.742-.315 21.99-.933 24.412-2.082-20.481-51.733-20.481-51.733z" fill="#323b5f"/><g><g><path d="m106.705 391.795h100.782v22.163h-100.782z" fill="#dae7fc"/></g><g><path d="m175.839 369.541h-69.541v-66.469h69.541z" fill="#54b2a3"/></g><g><path d="m141.069 369.541h-34.771v-66.469h34.771z" fill="#89cfbb"/></g></g><g><path d="m150.157 179.878v42.895h-11.888l-16.3-19.486v19.486h-14.094v-42.895h11.888l16.3 19.487v-19.487z" fill="#8d8ddb"/><path d="m192.809 211.866v10.908h-35.664v-42.895h34.867v10.908h-20.651v5.025h18.139v10.417h-18.138v5.637z" fill="#8d8ddb"/><path d="m268.065 219.342 4.657-10.54c4.044 2.39 9.437 3.922 14.156 3.922 4.106 0 5.576-.858 5.576-2.329 0-5.393-23.715-1.042-23.715-17.035 0-7.966 6.68-14.462 19.977-14.462 5.76 0 11.704 1.226 16.178 3.738l-4.351 10.479c-4.228-2.145-8.212-3.187-11.949-3.187-4.228 0-5.576 1.226-5.576 2.696 0 5.147 23.715.858 23.715 16.668 0 7.844-6.679 14.462-19.977 14.462-7.171 0-14.402-1.777-18.691-4.412z" fill="#5c5ccc"/></g></g><g><path d="m107.444 258.009v22.163h100.043l8.99-9.906-8.99-12.257z" fill="#dae7fc"/><path d="m207.487 258.009h100.044v22.163h-100.044z" fill="#a8cef0"/><path d="m207.487 391.795h100.044v22.163h-100.044z" fill="#a8cef0"/><path d="m194.894 179.878 12.593 39.353 2.922-21.013-2.922-18.34z" fill="#8d8ddb"/></g><path d="m224.124 222.773 7.292-22.918 6.925 22.918h15.503l13.726-42.895h-13.726l-7.905 24.696-7.476-24.696h-13.297l-7.905 24.389-7.476-24.389h-2.298v39.353l1.134 3.542z" fill="#5c5ccc"/></g><g><path d="m388.473 375.856c-10.829 5.482-56.992-30.945-51.511-20.116l-5.436-10.739c-5.481-10.829-18.703-15.164-29.532-9.682-10.829 5.482-15.164 18.704-9.682 29.532l-43.965-88.619c-5.481-10.829-18.704-15.164-29.532-9.682-10.829 5.481-15.164 18.704-9.682 29.532l55.541 111.487c-15.773 9.634 10.534 81.621 30.806 101.399 43.099-6.671 82.635-24.101 115.804-49.446-6.874-39.688-16.473-86.874-22.811-83.666z" fill="#ebbcc2"/><path d="m444.837 428.838v-56.2l-22.99-43.845c-5.482-10.829-18.704-15.164-29.532-9.682-10.829 5.481-15.164 18.704-9.682 29.532l-6.455-12.753c-5.482-10.829-18.704-15.164-29.532-9.682-10.829 5.482-15.164 18.704-9.682 29.533l59.117 114.549c17.943-11.754 34.324-25.693 48.756-41.452z" fill="#e7aeb6"/><path d="m315.45 505.046-50.778-97.476c-16.74 10.224-23.104 31.828-14.095 49.625l27.412 53.855c12.778-1.087 25.288-3.109 37.461-6.004z" fill="#ebbcc2"/></g></g><g fill="#fff"><path d="m373.814 66.2h-1.524c-6.754 0-12.226-5.477-12.226-12.227v-1.523h-8.715v1.523c0 6.75-5.477 12.227-12.227 12.227h-1.527v8.715h1.527c6.75 0 12.227 5.472 12.227 12.226v1.528h8.715v-1.528c0-6.754 5.472-12.226 12.226-12.226h1.524zm0 0"/><path d="m253.081 88.669h-1.524c-6.754 0-12.226-5.477-12.226-12.227v-1.523h-8.715v1.523c0 6.75-5.477 12.227-12.227 12.227h-1.527v8.715h1.527c6.75 0 12.227 5.472 12.227 12.226v1.528h8.715v-1.528c0-6.754 5.472-12.226 12.226-12.226h1.524zm0 0"/><path d="m437.761 218.414h-1.524c-6.754 0-12.226-5.477-12.226-12.227v-1.523h-8.715v1.523c0 6.75-5.477 12.227-12.227 12.227h-1.527v8.715h1.527c6.75 0 12.227 5.472 12.227 12.226v1.528h8.715v-1.528c0-6.754 5.472-12.226 12.226-12.226h1.524zm0 0"/></g></g></svg>